<svg xmlns="http://www.w3.org/2000/svg" width="139.1" height="35" viewBox="0 0 139.1 35"><rect class="svg__rect" x="0" y="0" width="95.99" height="35" fill="#FFFFFF" data-darkreader-inline-fill="" style="--darkreader-inline-fill:#181a1b;"/><rect class="svg__rect" x="93.99" y="0" width="45.11" height="35" fill="#F7FF00" data-darkreader-inline-fill="" style="--darkreader-inline-fill:#959900;"/><path class="svg__text" d="M15.69 22L14.22 22L14.22 13.47L16.14 13.47L18.60 20.01L21.06 13.47L22.97 13.47L22.97 22L21.49 22L21.49 19.19L21.64 15.43L19.12 22L18.06 22L15.55 15.43L15.69 19.19L15.69 22ZM28.49 22L26.95 22L30.17 13.47L31.50 13.47L34.73 22L33.18 22L32.49 20.01L29.18 20.01L28.49 22ZM30.83 15.28L29.60 18.82L32.07 18.82L30.83 15.28ZM41.14 22L38.69 22L38.69 13.47L41.21 13.47Q42.34 13.47 43.21 13.97Q44.09 14.48 44.57 15.40Q45.05 16.33 45.05 17.52L45.05 17.52L45.05 17.95Q45.05 19.16 44.57 20.08Q44.08 21.00 43.19 21.50Q42.30 22 41.14 22L41.14 22ZM40.17 14.66L40.17 20.82L41.14 20.82Q42.30 20.82 42.93 20.09Q43.55 19.36 43.56 17.99L43.56 17.99L43.56 17.52Q43.56 16.13 42.96 15.40Q42.35 14.66 41.21 14.66L41.21 14.66L40.17 14.66ZM55.09 22L49.51 22L49.51 13.47L55.05 13.47L55.05 14.66L51.00 14.66L51.00 17.02L54.50 17.02L54.50 18.19L51.00 18.19L51.00 20.82L55.09 20.82L55.09 22ZM68.38 22L65.26 22L65.26 13.47L68.19 13.47Q69.64 13.47 70.39 14.05Q71.15 14.63 71.15 15.78L71.15 15.78Q71.15 16.36 70.83 16.83Q70.51 17.30 69.90 17.56L69.90 17.56Q70.60 17.75 70.97 18.26Q71.35 18.78 71.35 19.51L71.35 19.51Q71.35 20.71 70.58 21.36Q69.81 22 68.38 22L68.38 22ZM66.75 18.15L66.75 20.82L68.39 20.82Q69.09 20.82 69.48 20.47Q69.88 20.13 69.88 19.51L69.88 19.51Q69.88 18.18 68.52 18.15L68.52 18.15L66.75 18.15ZM66.75 14.66L66.75 17.06L68.20 17.06Q68.89 17.06 69.28 16.75Q69.67 16.43 69.67 15.86L69.67 15.86Q69.67 15.23 69.31 14.95Q68.95 14.66 68.19 14.66L68.19 14.66L66.75 14.66ZM77.86 18.86L75.00 13.47L76.64 13.47L78.61 17.51L80.57 13.47L82.21 13.47L79.35 18.86L79.35 22L77.86 22L77.86 18.86Z" fill="#000000" data-darkreader-inline-fill="" style="--darkreader-inline-fill:#000000;"/><path class="svg__text" d="M110.56 22L108.18 22L108.18 13.60L114.77 13.60L114.77 15.44L110.56 15.44L110.56 17.28L114.27 17.28L114.27 19.12L110.56 19.12L110.56 22ZM118.94 17.80L118.94 17.80Q118.94 16.54 119.53 15.54Q120.13 14.55 121.20 13.99Q122.27 13.43 123.61 13.43L123.61 13.43Q124.79 13.43 125.73 13.83Q126.66 14.22 127.29 14.97L127.29 14.97L125.77 16.33Q124.93 15.40 123.75 15.40L123.75 15.40Q123.74 15.40 123.73 15.40L123.73 15.40Q122.66 15.40 121.99 16.06Q121.33 16.71 121.33 17.80L121.33 17.80Q121.33 18.50 121.63 19.04Q121.94 19.59 122.47 19.89Q123.01 20.20 123.71 20.20L123.71 20.20Q124.40 20.20 124.99 19.93L124.99 19.93L124.99 17.62L127.09 17.62L127.09 21.10Q126.37 21.61 125.44 21.89Q124.50 22.17 123.56 22.17L123.56 22.17Q122.25 22.17 121.19 21.61Q120.13 21.05 119.53 20.05Q118.94 19.06 118.94 17.80Z" fill="#000000" x="106.99" data-darkreader-inline-fill="" style="--darkreader-inline-fill:#e8e6e3;"/></svg>